<mxfile host="www.draw.io" modified="2019-10-22T01:50:40.011Z" agent="Mozilla/5.0 (Macintosh; Intel Mac OS X 10_14_6) AppleWebKit/537.36 (KHTML, like Gecko) Chrome/77.0.3865.120 Safari/537.36" etag="Vji8gXQdIHdE10NqoyBo" version="12.1.3" type="github" pages="1">
  <diagram id="MbjbUBoe02YS5g_O7uAm" name="第 1 页">
    <mxGraphModel dx="772" dy="532" grid="1" gridSize="10" guides="1" tooltips="1" connect="1" arrows="1" fold="1" page="1" pageScale="1" pageWidth="827" pageHeight="1169" math="0" shadow="0">
      <root>
        <mxCell id="0"/>
        <mxCell id="1" parent="0"/>
        <mxCell id="luJPvhaDtuZK9CBTQS-O-51" value="下雨就像弹钢琴" style="text;strokeColor=none;fillColor=none;align=center;verticalAlign=middle;rounded=1;shadow=1;glass=1;fontColor=#E6E6E6;comic=1;fontFamily=Comic Sans MS;labelBackgroundColor=none;labelBorderColor=none;fontStyle=1;fontSize=14;textOpacity=60;whiteSpace=wrap;html=1;rotation=15;" vertex="1" parent="1">
          <mxGeometry x="130" y="395" width="110" height="20" as="geometry"/>
        </mxCell>
        <mxCell id="luJPvhaDtuZK9CBTQS-O-50" value="虚怀若谷 zhoujunwen.com" style="text;strokeColor=none;fillColor=none;align=center;verticalAlign=middle;rounded=1;shadow=1;glass=1;fontColor=#E6E6E6;comic=1;fontFamily=Comic Sans MS;labelBackgroundColor=none;labelBorderColor=none;fontStyle=1;fontSize=14;textOpacity=60;whiteSpace=wrap;html=1;rotation=15;" vertex="1" parent="1">
          <mxGeometry x="130" y="220" width="110" height="20" as="geometry"/>
        </mxCell>
        <mxCell id="luJPvhaDtuZK9CBTQS-O-52" value="下雨就像弹钢琴" style="text;strokeColor=none;fillColor=none;align=center;verticalAlign=middle;rounded=1;shadow=1;glass=1;fontColor=#E6E6E6;comic=1;fontFamily=Comic Sans MS;labelBackgroundColor=none;labelBorderColor=none;fontStyle=1;fontSize=14;textOpacity=60;whiteSpace=wrap;html=1;rotation=15;" vertex="1" parent="1">
          <mxGeometry x="420" y="220" width="110" height="20" as="geometry"/>
        </mxCell>
        <mxCell id="luJPvhaDtuZK9CBTQS-O-53" value="虚怀若谷 zhoujunwen.com" style="text;strokeColor=none;fillColor=none;align=center;verticalAlign=middle;rounded=1;shadow=1;glass=1;fontColor=#E6E6E6;comic=1;fontFamily=Comic Sans MS;labelBackgroundColor=none;labelBorderColor=none;fontStyle=1;fontSize=14;textOpacity=60;whiteSpace=wrap;html=1;rotation=15;" vertex="1" parent="1">
          <mxGeometry x="380" y="405" width="110" height="20" as="geometry"/>
        </mxCell>
        <mxCell id="luJPvhaDtuZK9CBTQS-O-54" value="虚怀若谷 zhoujunwen.com" style="text;strokeColor=none;fillColor=none;align=center;verticalAlign=middle;rounded=1;shadow=1;glass=1;fontColor=#E6E6E6;comic=1;fontFamily=Comic Sans MS;labelBackgroundColor=none;labelBorderColor=none;fontStyle=1;fontSize=14;textOpacity=60;whiteSpace=wrap;html=1;rotation=15;" vertex="1" parent="1">
          <mxGeometry x="130" y="560" width="110" height="20" as="geometry"/>
        </mxCell>
        <mxCell id="luJPvhaDtuZK9CBTQS-O-55" value="下雨就像弹钢琴" style="text;strokeColor=none;fillColor=none;align=center;verticalAlign=middle;rounded=1;shadow=1;glass=1;fontColor=#E6E6E6;comic=1;fontFamily=Comic Sans MS;labelBackgroundColor=none;labelBorderColor=none;fontStyle=1;fontSize=14;textOpacity=60;whiteSpace=wrap;html=1;rotation=15;" vertex="1" parent="1">
          <mxGeometry x="380" y="560" width="110" height="20" as="geometry"/>
        </mxCell>
        <mxCell id="luJPvhaDtuZK9CBTQS-O-56" value="虚怀若谷 zhoujunwen.com" style="text;strokeColor=none;fillColor=none;align=center;verticalAlign=middle;rounded=1;shadow=1;glass=1;fontColor=#E6E6E6;comic=1;fontFamily=Comic Sans MS;labelBackgroundColor=none;labelBorderColor=none;fontStyle=1;fontSize=14;textOpacity=60;whiteSpace=wrap;html=1;rotation=15;" vertex="1" parent="1">
          <mxGeometry x="630" y="220" width="110" height="20" as="geometry"/>
        </mxCell>
        <mxCell id="luJPvhaDtuZK9CBTQS-O-57" value="下雨就像弹钢琴" style="text;strokeColor=none;fillColor=none;align=center;verticalAlign=middle;rounded=1;shadow=1;glass=1;fontColor=#E6E6E6;comic=1;fontFamily=Comic Sans MS;labelBackgroundColor=none;labelBorderColor=none;fontStyle=1;fontSize=14;textOpacity=60;whiteSpace=wrap;html=1;rotation=15;" vertex="1" parent="1">
          <mxGeometry x="625" y="405" width="110" height="20" as="geometry"/>
        </mxCell>
        <mxCell id="luJPvhaDtuZK9CBTQS-O-58" value="虚怀若谷 zhoujunwen.com" style="text;strokeColor=none;fillColor=none;align=center;verticalAlign=middle;rounded=1;shadow=1;glass=1;fontColor=#E6E6E6;comic=1;fontFamily=Comic Sans MS;labelBackgroundColor=none;labelBorderColor=none;fontStyle=1;fontSize=14;textOpacity=60;whiteSpace=wrap;html=1;rotation=15;" vertex="1" parent="1">
          <mxGeometry x="625" y="560" width="110" height="20" as="geometry"/>
        </mxCell>
        <mxCell id="luJPvhaDtuZK9CBTQS-O-1" value="/root" style="rounded=0;whiteSpace=wrap;html=1;fillColor=#b0e3e6;strokeColor=#0e8088;" vertex="1" parent="1">
          <mxGeometry x="120" y="410" width="50" height="20" as="geometry"/>
        </mxCell>
        <mxCell id="luJPvhaDtuZK9CBTQS-O-2" value="/yyy" style="rounded=0;whiteSpace=wrap;html=1;fillColor=#f8cecc;strokeColor=#b85450;" vertex="1" parent="1">
          <mxGeometry x="190" y="530" width="50" height="20" as="geometry"/>
        </mxCell>
        <mxCell id="luJPvhaDtuZK9CBTQS-O-3" value="/xxx" style="rounded=0;whiteSpace=wrap;html=1;fillColor=#f8cecc;strokeColor=#b85450;" vertex="1" parent="1">
          <mxGeometry x="190" y="410" width="50" height="20" as="geometry"/>
        </mxCell>
        <mxCell id="luJPvhaDtuZK9CBTQS-O-4" value="/lock" style="rounded=0;whiteSpace=wrap;html=1;fillColor=#f8cecc;strokeColor=#b85450;" vertex="1" parent="1">
          <mxGeometry x="190" y="290" width="50" height="20" as="geometry"/>
        </mxCell>
        <mxCell id="luJPvhaDtuZK9CBTQS-O-6" value="" style="shape=curlyBracket;whiteSpace=wrap;html=1;rounded=1;" vertex="1" parent="1">
          <mxGeometry x="170" y="300" width="20" height="240" as="geometry"/>
        </mxCell>
        <mxCell id="luJPvhaDtuZK9CBTQS-O-7" value="" style="shape=curlyBracket;whiteSpace=wrap;html=1;rounded=1;size=0.25;" vertex="1" parent="1">
          <mxGeometry x="240" y="240" width="20" height="120" as="geometry"/>
        </mxCell>
        <mxCell id="luJPvhaDtuZK9CBTQS-O-10" value="/resource_name1" style="rounded=0;whiteSpace=wrap;html=1;fillColor=#fff2cc;strokeColor=#d6b656;" vertex="1" parent="1">
          <mxGeometry x="260" y="230" width="100" height="20" as="geometry"/>
        </mxCell>
        <mxCell id="luJPvhaDtuZK9CBTQS-O-11" value="/resource_name2" style="rounded=0;whiteSpace=wrap;html=1;fillColor=#fff2cc;strokeColor=#d6b656;" vertex="1" parent="1">
          <mxGeometry x="260" y="350" width="100" height="20" as="geometry"/>
        </mxCell>
        <mxCell id="luJPvhaDtuZK9CBTQS-O-26" style="edgeStyle=orthogonalEdgeStyle;rounded=0;orthogonalLoop=1;jettySize=auto;html=1;entryX=0;entryY=0.5;entryDx=0;entryDy=0;fillColor=#dae8fc;strokeColor=#6c8ebf;strokeWidth=2;gradientColor=#7ea6e0;" edge="1" parent="1" source="luJPvhaDtuZK9CBTQS-O-14" target="luJPvhaDtuZK9CBTQS-O-22">
          <mxGeometry relative="1" as="geometry"/>
        </mxCell>
        <mxCell id="luJPvhaDtuZK9CBTQS-O-14" value="/0000000001" style="rounded=0;whiteSpace=wrap;html=1;fillColor=#d5e8d4;strokeColor=#82b366;" vertex="1" parent="1">
          <mxGeometry x="380" y="170" width="100" height="20" as="geometry"/>
        </mxCell>
        <mxCell id="luJPvhaDtuZK9CBTQS-O-27" style="edgeStyle=orthogonalEdgeStyle;rounded=0;orthogonalLoop=1;jettySize=auto;html=1;entryX=0;entryY=0.5;entryDx=0;entryDy=0;fillColor=#dae8fc;strokeColor=#6c8ebf;strokeWidth=2;gradientColor=#7ea6e0;" edge="1" parent="1" source="luJPvhaDtuZK9CBTQS-O-15" target="luJPvhaDtuZK9CBTQS-O-23">
          <mxGeometry relative="1" as="geometry"/>
        </mxCell>
        <mxCell id="luJPvhaDtuZK9CBTQS-O-30" style="edgeStyle=orthogonalEdgeStyle;curved=1;rounded=0;orthogonalLoop=1;jettySize=auto;html=1;entryX=1;entryY=0.75;entryDx=0;entryDy=0;fontColor=#FF99CC;fillColor=#e1d5e7;strokeColor=#CC0000;strokeWidth=2;" edge="1" parent="1" source="luJPvhaDtuZK9CBTQS-O-15" target="luJPvhaDtuZK9CBTQS-O-14">
          <mxGeometry relative="1" as="geometry">
            <mxPoint x="480" y="180" as="targetPoint"/>
            <Array as="points">
              <mxPoint x="520" y="210"/>
              <mxPoint x="520" y="185"/>
            </Array>
          </mxGeometry>
        </mxCell>
        <mxCell id="luJPvhaDtuZK9CBTQS-O-32" value="Watcher" style="text;html=1;resizable=0;points=[];align=center;verticalAlign=middle;labelBackgroundColor=#ffffff;fontColor=#CC0000;" vertex="1" connectable="0" parent="luJPvhaDtuZK9CBTQS-O-30">
          <mxGeometry x="0.0286" y="3" relative="1" as="geometry">
            <mxPoint as="offset"/>
          </mxGeometry>
        </mxCell>
        <mxCell id="luJPvhaDtuZK9CBTQS-O-15" value="/0000000002" style="rounded=0;whiteSpace=wrap;html=1;fillColor=#d5e8d4;strokeColor=#82b366;" vertex="1" parent="1">
          <mxGeometry x="380" y="210" width="100" height="20" as="geometry"/>
        </mxCell>
        <mxCell id="luJPvhaDtuZK9CBTQS-O-28" style="edgeStyle=orthogonalEdgeStyle;rounded=0;orthogonalLoop=1;jettySize=auto;html=1;entryX=0;entryY=0.5;entryDx=0;entryDy=0;fillColor=#dae8fc;strokeColor=#6c8ebf;strokeWidth=2;gradientColor=#7ea6e0;" edge="1" parent="1" source="luJPvhaDtuZK9CBTQS-O-16" target="luJPvhaDtuZK9CBTQS-O-24">
          <mxGeometry relative="1" as="geometry"/>
        </mxCell>
        <mxCell id="luJPvhaDtuZK9CBTQS-O-33" style="edgeStyle=orthogonalEdgeStyle;curved=1;rounded=0;orthogonalLoop=1;jettySize=auto;html=1;entryX=1;entryY=0.75;entryDx=0;entryDy=0;fontColor=#FF99CC;fillColor=#e1d5e7;strokeColor=#CC0000;strokeWidth=2;" edge="1" parent="1" source="luJPvhaDtuZK9CBTQS-O-16" target="luJPvhaDtuZK9CBTQS-O-15">
          <mxGeometry relative="1" as="geometry">
            <Array as="points">
              <mxPoint x="520" y="250"/>
              <mxPoint x="520" y="225"/>
            </Array>
          </mxGeometry>
        </mxCell>
        <mxCell id="luJPvhaDtuZK9CBTQS-O-34" value="Watcher" style="text;html=1;resizable=0;points=[];align=center;verticalAlign=middle;labelBackgroundColor=#ffffff;fontColor=#CC0000;" vertex="1" connectable="0" parent="luJPvhaDtuZK9CBTQS-O-33">
          <mxGeometry x="0.0095" y="2" relative="1" as="geometry">
            <mxPoint as="offset"/>
          </mxGeometry>
        </mxCell>
        <mxCell id="luJPvhaDtuZK9CBTQS-O-16" value="/0000000003" style="rounded=0;whiteSpace=wrap;html=1;fillColor=#d5e8d4;strokeColor=#82b366;" vertex="1" parent="1">
          <mxGeometry x="380" y="250" width="100" height="20" as="geometry"/>
        </mxCell>
        <mxCell id="luJPvhaDtuZK9CBTQS-O-29" style="edgeStyle=orthogonalEdgeStyle;rounded=0;orthogonalLoop=1;jettySize=auto;html=1;fillColor=#dae8fc;strokeColor=#6c8ebf;strokeWidth=2;gradientColor=#7ea6e0;" edge="1" parent="1" source="luJPvhaDtuZK9CBTQS-O-17" target="luJPvhaDtuZK9CBTQS-O-25">
          <mxGeometry relative="1" as="geometry"/>
        </mxCell>
        <mxCell id="luJPvhaDtuZK9CBTQS-O-35" value="Watcher" style="edgeStyle=orthogonalEdgeStyle;curved=1;rounded=0;orthogonalLoop=1;jettySize=auto;html=1;entryX=1;entryY=0.75;entryDx=0;entryDy=0;fontColor=#CC0000;fillColor=#e1d5e7;strokeColor=#CC0000;strokeWidth=2;" edge="1" parent="1" source="luJPvhaDtuZK9CBTQS-O-17" target="luJPvhaDtuZK9CBTQS-O-16">
          <mxGeometry relative="1" as="geometry">
            <mxPoint x="480" y="270" as="targetPoint"/>
            <Array as="points">
              <mxPoint x="520" y="290"/>
              <mxPoint x="520" y="265"/>
            </Array>
          </mxGeometry>
        </mxCell>
        <mxCell id="luJPvhaDtuZK9CBTQS-O-17" value="/0000000004" style="rounded=0;whiteSpace=wrap;html=1;fillColor=#d5e8d4;strokeColor=#82b366;" vertex="1" parent="1">
          <mxGeometry x="380" y="290" width="100" height="20" as="geometry"/>
        </mxCell>
        <mxCell id="luJPvhaDtuZK9CBTQS-O-19" value="" style="shape=curlyBracket;whiteSpace=wrap;html=1;rounded=1;" vertex="1" parent="1">
          <mxGeometry x="360" y="180" width="20" height="120" as="geometry"/>
        </mxCell>
        <mxCell id="luJPvhaDtuZK9CBTQS-O-22" value="/client1" style="rounded=0;whiteSpace=wrap;html=1;fillColor=#dae8fc;strokeColor=#6c8ebf;" vertex="1" parent="1">
          <mxGeometry x="570" y="170" width="50" height="20" as="geometry"/>
        </mxCell>
        <mxCell id="luJPvhaDtuZK9CBTQS-O-23" value="/client2" style="rounded=0;whiteSpace=wrap;html=1;fillColor=#dae8fc;strokeColor=#6c8ebf;" vertex="1" parent="1">
          <mxGeometry x="570" y="210" width="50" height="20" as="geometry"/>
        </mxCell>
        <mxCell id="luJPvhaDtuZK9CBTQS-O-24" value="/client3" style="rounded=0;whiteSpace=wrap;html=1;fillColor=#dae8fc;strokeColor=#6c8ebf;" vertex="1" parent="1">
          <mxGeometry x="570" y="250" width="50" height="20" as="geometry"/>
        </mxCell>
        <mxCell id="luJPvhaDtuZK9CBTQS-O-25" value="/client4" style="rounded=0;whiteSpace=wrap;html=1;fillColor=#dae8fc;strokeColor=#6c8ebf;" vertex="1" parent="1">
          <mxGeometry x="570" y="290" width="50" height="20" as="geometry"/>
        </mxCell>
        <mxCell id="luJPvhaDtuZK9CBTQS-O-36" value="当前获取锁的节点" style="shape=callout;whiteSpace=wrap;html=1;perimeter=calloutPerimeter;fontColor=#ffffff;fillColor=#f0a30a;strokeColor=#BD7000;position2=0;rotation=0;" vertex="1" parent="1">
          <mxGeometry x="620" y="100" width="120" height="80" as="geometry"/>
        </mxCell>
        <mxCell id="luJPvhaDtuZK9CBTQS-O-37" value="" style="shape=curlyBracket;whiteSpace=wrap;html=1;rounded=1;fontColor=#000000;" vertex="1" parent="1">
          <mxGeometry x="240" y="390" width="20" height="60" as="geometry"/>
        </mxCell>
        <mxCell id="luJPvhaDtuZK9CBTQS-O-46" style="edgeStyle=orthogonalEdgeStyle;curved=1;rounded=0;orthogonalLoop=1;jettySize=auto;html=1;entryX=0;entryY=0.5;entryDx=0;entryDy=0;strokeColor=#000000;strokeWidth=1;fontColor=#000000;endArrow=none;endFill=0;" edge="1" parent="1" source="luJPvhaDtuZK9CBTQS-O-39" target="luJPvhaDtuZK9CBTQS-O-44">
          <mxGeometry relative="1" as="geometry"/>
        </mxCell>
        <mxCell id="luJPvhaDtuZK9CBTQS-O-39" value="/resource_xxx1" style="rounded=0;whiteSpace=wrap;html=1;fillColor=#fff2cc;strokeColor=#d6b656;" vertex="1" parent="1">
          <mxGeometry x="260" y="380" width="100" height="20" as="geometry"/>
        </mxCell>
        <mxCell id="luJPvhaDtuZK9CBTQS-O-47" style="edgeStyle=orthogonalEdgeStyle;curved=1;rounded=0;orthogonalLoop=1;jettySize=auto;html=1;entryX=0;entryY=0.5;entryDx=0;entryDy=0;strokeColor=#000000;strokeWidth=1;fontColor=#000000;endArrow=none;endFill=0;" edge="1" parent="1" source="luJPvhaDtuZK9CBTQS-O-40" target="luJPvhaDtuZK9CBTQS-O-45">
          <mxGeometry relative="1" as="geometry"/>
        </mxCell>
        <mxCell id="luJPvhaDtuZK9CBTQS-O-40" value="/resource_xxx2" style="rounded=0;whiteSpace=wrap;html=1;fillColor=#fff2cc;strokeColor=#d6b656;" vertex="1" parent="1">
          <mxGeometry x="260" y="440" width="100" height="20" as="geometry"/>
        </mxCell>
        <mxCell id="luJPvhaDtuZK9CBTQS-O-41" value="" style="shape=curlyBracket;whiteSpace=wrap;html=1;rounded=1;fontColor=#000000;" vertex="1" parent="1">
          <mxGeometry x="240" y="510" width="20" height="60" as="geometry"/>
        </mxCell>
        <mxCell id="luJPvhaDtuZK9CBTQS-O-42" value="/resource_yyy1" style="rounded=0;whiteSpace=wrap;html=1;fillColor=#fff2cc;strokeColor=#d6b656;" vertex="1" parent="1">
          <mxGeometry x="260" y="500" width="100" height="20" as="geometry"/>
        </mxCell>
        <mxCell id="luJPvhaDtuZK9CBTQS-O-43" value="/resource_yyy2" style="rounded=0;whiteSpace=wrap;html=1;fillColor=#fff2cc;strokeColor=#d6b656;" vertex="1" parent="1">
          <mxGeometry x="260" y="560" width="100" height="20" as="geometry"/>
        </mxCell>
        <mxCell id="luJPvhaDtuZK9CBTQS-O-44" value="/..." style="rounded=0;whiteSpace=wrap;html=1;fillColor=#bac8d3;strokeColor=#23445d;" vertex="1" parent="1">
          <mxGeometry x="390" y="380" width="60" height="20" as="geometry"/>
        </mxCell>
        <mxCell id="luJPvhaDtuZK9CBTQS-O-45" value="/..." style="rounded=0;whiteSpace=wrap;html=1;fillColor=#bac8d3;strokeColor=#23445d;" vertex="1" parent="1">
          <mxGeometry x="390" y="440" width="60" height="20" as="geometry"/>
        </mxCell>
      </root>
    </mxGraphModel>
  </diagram>
</mxfile>
